Coordinates
version=1
nRows=14
nColumns=40
inDegrees=yes

Units are S.I. units (second, meters, Newtons, ...)
If the header above contains a line with 'inDegrees', this indicates whether rotational values are in degrees (yes) or radians (no).

endheader
time	pelvis_tilt	pelvis_list	pelvis_rotation	pelvis_tx	pelvis_ty	pelvis_tz	hip_flexion_r	hip_adduction_r	hip_rotation_r	knee_angle_r	knee_angle_r_beta	ankle_angle_r	subtalar_angle_r	mtp_angle_r	hip_flexion_l	hip_adduction_l	hip_rotation_l	knee_angle_l	knee_angle_l_beta	ankle_angle_l	subtalar_angle_l	mtp_angle_l	lumbar_extension	lumbar_bending	lumbar_rotation	arm_flex_r	arm_add_r	arm_rot_r	elbow_flex_r	pro_sup_r	wrist_flex_r	wrist_dev_r	arm_flex_l	arm_add_l	arm_rot_l	elbow_flex_l	pro_sup_l	wrist_flex_l	wrist_dev_l
      7.03500000	     44.08228689	      0.71462170	   -178.92115598	      0.39634035	      0.76589648	     -0.58951603	     80.15957826	    -12.02556604	      1.82988860	     34.46568191	      0.60153963	      1.54409476	      0.00000000	      0.00000000	     81.50892596	    -11.95937426	     -1.90483208	     36.84167601	      0.64300855	      1.28581332	      0.00000000	      0.00000000	    -45.69864477	     -2.31571002	      1.56870827	     68.48532639	    -21.26137205	     57.64885170	     23.37379453	     66.84902466	      0.00000000	      0.00000000	     71.19728765	     -2.14687185	      7.52399885	     14.04949744	     24.76273532	      0.00000000	      0.00000000
      7.04000000	     44.06036338	      0.70640033	   -178.85088577	      0.39635978	      0.76638370	     -0.58915894	     80.07232377	    -12.13978411	      1.72599676	     34.39184347	      0.60025090	      1.53411474	      0.00000000	      0.00000000	     81.41036855	    -11.87100912	     -1.95166330	     36.71908304	      0.64086890	      1.26554287	      0.00000000	      0.00000000	    -45.65784534	     -2.23986441	      1.49035089	     68.37382340	    -21.23777303	     57.68072888	     23.37994080	     66.85895590	      0.00000000	      0.00000000	     71.07776393	     -2.14312403	      7.50594572	     13.99608784	     24.74011891	      0.00000000	      0.00000000
      7.04500000	     43.91711774	      0.68371336	   -178.87103618	      0.39626456	      0.76732780	     -0.58896591	     79.72901339	    -12.12374876	      1.73182634	     34.02590883	      0.59386414	      1.39166179	      0.00000000	      0.00000000	     81.07454689	    -11.87917548	     -2.06091263	     36.40335117	      0.63535834	      1.10573583	      0.00000000	      0.00000000	    -45.80308677	     -2.24039562	      1.46988409	     68.39092602	    -21.23737539	     57.71172149	     23.37751687	     66.87824481	      0.00000000	      0.00000000	     71.06470655	     -2.17061550	      7.42606291	     14.06148521	     24.67819261	      0.00000000	      0.00000000
      7.05000000	     43.88104765	      0.66270351	   -178.78439797	      0.39634854	      0.76774368	     -0.58855537	     79.64082469	    -12.26108327	      1.65879233	     33.96634698	      0.59282459	      1.37042477	      0.00000000	      0.00000000	     80.99433833	    -11.76371276	     -2.10385111	     36.34618866	      0.63436066	      1.07622879	      0.00000000	      0.00000000	    -45.76902323	     -2.16616317	      1.38504252	     68.28250359	    -21.24321305	     57.73755134	     23.36613730	     66.88499832	      0.00000000	      0.00000000	     70.95597140	     -2.15144669	      7.41402768	     14.01717120	     24.66463710	      0.00000000	      0.00000000
      7.05500000	     43.82354435	      0.64956874	   -178.76581172	      0.39632103	      0.76824357	     -0.58827248	     79.50286314	    -12.32259840	      1.54842890	     33.83400426	      0.59051477	      1.32523230	      0.00000000	      0.00000000	     80.84516519	    -11.72565203	     -2.20210362	     36.18570071	      0.63155962	      1.02593572	      0.00000000	      0.00000000	    -45.75357678	     -2.13165687	      1.33679684	     68.18556938	    -21.21959283	     57.76596213	     23.37922648	     66.89496821	      0.00000000	      0.00000000	     70.83887537	     -2.16678571	      7.38677248	     13.98008998	     24.64452465	      0.00000000	      0.00000000
      7.06000000	     43.56508645	      0.56836868	   -178.82048690	      0.39612438	      0.76934616	     -0.58819238	     79.04046725	    -12.28755684	      1.59980837	     33.41495241	      0.58320094	      1.09900916	      0.00000000	      0.00000000	     80.34744618	    -11.76720997	     -2.42035440	     35.83541153	      0.62544592	      0.79969491	      0.00000000	      0.00000000	    -46.04399452	     -2.21439732	      1.30902342	     68.25030564	    -21.22526254	     57.78109422	     23.41156481	     66.91944784	      0.00000000	      0.00000000	     70.86432608	     -2.20984367	      7.29954852	     14.09154659	     24.58630579	      0.00000000	      0.00000000
      7.06500000	     43.48750217	      0.54336621	   -178.73902316	      0.39619205	      0.76968248	     -0.58781983	     78.92829540	    -12.41368845	      1.54887834	     33.38433340	      0.58266654	      1.08082423	      0.00000000	      0.00000000	     80.24571779	    -11.65547031	     -2.44429414	     35.81849781	      0.62515072	      0.77569322	      0.00000000	      0.00000000	    -46.01028056	     -2.14993061	      1.22928076	     68.11271653	    -21.22950374	     57.81094567	     23.39275172	     66.92712398	      0.00000000	      0.00000000	     70.77160938	     -2.14817603	      7.29152256	     14.07352435	     24.57512530	      0.00000000	      0.00000000
      7.07000000	     43.39754264	      0.53629605	   -178.71399042	      0.39620062	      0.77007512	     -0.58755991	     78.78412410	    -12.47804530	      1.45458581	     33.31260504	      0.58141464	      1.05289388	      0.00000000	      0.00000000	     80.10204454	    -11.62460741	     -2.52514355	     35.72613528	      0.62353869	      0.75886303	      0.00000000	      0.00000000	    -46.01148224	     -2.11950669	      1.18547269	     67.99977996	    -21.23025992	     57.83511935	     23.38250620	     66.93662208	      0.00000000	      0.00000000	     70.62254807	     -2.18392246	      7.26899281	     14.00624547	     24.55772765	      0.00000000	      0.00000000
      7.07500000	     43.36349599	      0.52862774	   -178.62367265	      0.39642947	      0.77030109	     -0.58712040	     78.74048039	    -12.60118837	      1.44514498	     33.30163705	      0.58122321	      1.05220714	      0.00000000	      0.00000000	     80.06677266	    -11.49948188	     -2.53989470	     35.72096538	      0.62344846	      0.75184182	      0.00000000	      0.00000000	    -45.96357706	     -2.01169404	      1.12963944	     67.96753598	    -21.25015374	     57.83907656	     23.37278408	     66.93767876	      0.00000000	      0.00000000	     70.62025554	     -2.16782077	      7.27057280	     14.00871955	     24.55671003	      0.00000000	      0.00000000
      7.08000000	     42.71989565	      0.45916910	   -178.82296533	      0.39562624	      0.77215272	     -0.58736452	     77.75587474	    -12.44841321	      1.30745758	     32.71545574	      0.57099242	      0.79221532	      0.00000000	      0.00000000	     79.09504471	    -11.76039093	     -2.95083697	     35.30775678	      0.61623661	      0.55176391	      0.00000000	      0.00000000	    -46.65407450	     -2.21283706	      1.23776542	     68.01797505	    -21.27062471	     57.85674099	     23.40227804	     66.98458236	      0.00000000	      0.00000000	     70.58725686	     -2.13577512	      7.14702181	     14.24025416	     24.47442678	      0.00000000	      0.00000000
      7.08500000	     42.64710996	      0.44839731	   -178.74394258	      0.39573865	      0.77239914	     -0.58702212	     77.66208573	    -12.58463677	      1.21456148	     32.70956808	      0.57088966	      0.78886679	      0.00000000	      0.00000000	     79.01504383	    -11.65548519	     -2.96156528	     35.29428496	      0.61600148	      0.54820629	      0.00000000	      0.00000000	    -46.61245234	     -2.15540265	      1.15497932	     67.88921579	    -21.27166197	     57.88623296	     23.38720370	     66.99320415	      0.00000000	      0.00000000	     70.44104631	     -2.16314982	      7.13857650	     14.14906353	     24.45991604	      0.00000000	      0.00000000
      7.09000000	     42.55440012	      0.45494834	   -178.74291599	      0.39577629	      0.77279657	     -0.58677590	     77.52446152	    -12.63189535	      1.07712446	     32.66219204	      0.57006279	      0.77193986	      0.00000000	      0.00000000	     78.87697370	    -11.64488413	     -3.00037144	     35.21424279	      0.61460448	      0.54141906	      0.00000000	      0.00000000	    -46.59099025	     -2.12599279	      1.11426318	     67.76279461	    -21.21332209	     57.92225124	     23.39740270	     67.00635041	      0.00000000	      0.00000000	     70.32148931	     -2.19589603	      7.12722831	     14.07590791	     24.44054882	      0.00000000	      0.00000000
      7.09500000	     41.99481921	      0.45006596	   -178.82922623	      0.39518904	      0.77424571	     -0.58679739	     76.76342897	    -12.58879716	      0.83251017	     32.37124267	      0.56498477	      0.60200418	      0.00000000	      0.00000000	     78.15737541	    -11.80558439	     -3.33569247	     35.06618963	      0.61202047	      0.50014977	      0.00000000	      0.00000000	    -47.15646448	     -2.17155207	      1.17459609	     67.86472402	    -21.19420630	     58.00798469	     23.31642916	     67.10261745	      0.00000000	      0.00000000	     70.40250012	     -2.16570849	      7.06626992	     14.18734059	     24.28376111	      0.00000000	      0.00000000
      7.10000000	     41.91157663	      0.47186681	   -178.80722780	      0.39525773	      0.77460593	     -0.58657277	     76.62415377	    -12.64517219	      0.69739116	     32.29561975	      0.56366490	      0.60596260	      0.00000000	      0.00000000	     78.04126529	    -11.77171113	     -3.33526595	     34.97326950	      0.61039870	      0.51079100	      0.00000000	      0.00000000	    -47.12847485	     -2.12169619	      1.12617795	     67.75901926	    -21.15130152	     58.05591545	     23.31513994	     67.12485536	      0.00000000	      0.00000000	     70.27511817	     -2.24170468	      7.06667611	     14.08684722	     24.25057866	      0.00000000	      0.00000000
